<?xml version="1.0" encoding="UTF-8" standalone="no"?>
<!-- Created with Inkscape (http://www.inkscape.org/) -->

<svg
   xmlns:dc="http://purl.org/dc/elements/1.1/"
   xmlns:cc="http://creativecommons.org/ns#"
   xmlns:rdf="http://www.w3.org/1999/02/22-rdf-syntax-ns#"
   xmlns:svg="http://www.w3.org/2000/svg"
   xmlns="http://www.w3.org/2000/svg"
   xmlns:sodipodi="http://sodipodi.sourceforge.net/DTD/sodipodi-0.dtd"
   xmlns:inkscape="http://www.inkscape.org/namespaces/inkscape"
   id="svg5725"
   version="1.1"
   inkscape:version="0.92.3 (2405546, 2018-03-11)"
   xml:space="preserve"
   width="609.59998mm"
   height="304.79999mm"
   viewBox="0 0 2160 1080"
   sodipodi:docname="sunBOX.svg"><metadata
     id="metadata5731"><rdf:RDF><cc:Work
         rdf:about=""><dc:format>image/svg+xml</dc:format><dc:type
           rdf:resource="http://purl.org/dc/dcmitype/StillImage" /><dc:title /></cc:Work></rdf:RDF></metadata><defs
     id="defs5729" /><sodipodi:namedview
     pagecolor="#ffffff"
     bordercolor="#666666"
     borderopacity="1"
     objecttolerance="10"
     gridtolerance="10"
     guidetolerance="10"
     inkscape:pageopacity="0"
     inkscape:pageshadow="2"
     inkscape:window-width="1920"
     inkscape:window-height="1025"
     id="namedview5727"
     showgrid="false"
     inkscape:snap-bbox="false"
     inkscape:bbox-paths="true"
     inkscape:bbox-nodes="true"
     inkscape:snap-bbox-edge-midpoints="true"
     inkscape:snap-bbox-midpoints="true"
     inkscape:object-paths="true"
     inkscape:snap-intersection-paths="true"
     inkscape:object-nodes="true"
     inkscape:snap-smooth-nodes="true"
     inkscape:snap-midpoints="true"
     inkscape:snap-object-midpoints="true"
     inkscape:zoom="1.4"
     inkscape:cx="315.92242"
     inkscape:cy="951.13448"
     inkscape:window-x="0"
     inkscape:window-y="27"
     inkscape:window-maximized="1"
     inkscape:current-layer="g5733"
     inkscape:document-units="mm"
     units="mm"
     inkscape:snap-others="true"
     inkscape:snap-nodes="false" /><g
     id="g5733"
     inkscape:groupmode="layer"
     inkscape:label="ink_ext_XXXXXX"
     transform="matrix(1.25,0,0,-1.25,0,1080)"><path
       inkscape:connector-curvature="0"
       id="path5765"
       style="fill:none;stroke:#000000;stroke-width:0.80000001;stroke-linecap:butt;stroke-linejoin:miter;stroke-miterlimit:10;stroke-dasharray:none;stroke-opacity:1"
       d="m 161.96027,807.30418 h 9.84733 v -2.83454 h 9.84615 v 2.83454 h 9.84732 v -2.83454 h 9.84615 v 2.83454 h 9.84733 v -2.83454 h 9.84615 v 2.83454 h 9.84615 v -2.83454 h 9.84733 v 2.83454 h 9.84615 v -2.83454 h 9.84733 v 2.83454 h 9.84615 v -2.83454 h 9.84615 v 2.83454 h 9.84732 v -2.83454 h 9.84615 v 2.83454 h 9.84733 v -2.83454 h 9.84615 v 2.83454 h 9.84733 v -2.83454 h 9.84615 v 2.83454 h 9.84615 m 0,0 v 0 c 8.14053,0 14.74036,6.59983 14.74036,14.74036"
       sodipodi:nodetypes="ccccccccccccccccccccccccccccccccccccccccc" /><path
       inkscape:connector-curvature="0"
       id="path5767"
       style="fill:none;stroke:#000000;stroke-width:0.80000001;stroke-linecap:butt;stroke-linejoin:miter;stroke-miterlimit:10;stroke-dasharray:none;stroke-opacity:1"
       d="m 363.7869,822.04454 v 5.66928 h 2.83483 v 5.66928 h -2.83483 v 5.66928"
       sodipodi:nodetypes="cccccc" /><path
       inkscape:connector-curvature="0"
       id="path5771"
       style="fill:none;stroke:#000000;stroke-width:0.80000001;stroke-linecap:butt;stroke-linejoin:miter;stroke-miterlimit:10;stroke-dasharray:none;stroke-opacity:1"
       d="m 147.22108,839.05238 v -5.66928 h -2.83557 v -5.66928 h 2.83557 v -5.66928"
       sodipodi:nodetypes="cccccc" /><path
       inkscape:connector-curvature="0"
       id="path5773"
       style="fill:none;stroke:#000000;stroke-width:0.80000001;stroke-linecap:butt;stroke-linejoin:miter;stroke-miterlimit:10;stroke-dasharray:none;stroke-opacity:1"
       d="m 147.22108,822.04454 c 0,-8.14053 6.59983,-14.74036 14.73919,-14.74036" /><path
       inkscape:connector-curvature="0"
       id="path5777"
       style="fill:none;stroke:#000000;stroke-width:0.80000001;stroke-linecap:butt;stroke-linejoin:miter;stroke-miterlimit:10;stroke-dasharray:none;stroke-opacity:1"
       d="m 147.22108,639.49323 v -5.66928 h -2.83557 v -5.66928 h 2.83557 v -5.66928"
       sodipodi:nodetypes="cccccc" /><path
       inkscape:connector-curvature="0"
       id="path5779"
       style="fill:none;stroke:#000000;stroke-width:0.80000001;stroke-linecap:butt;stroke-linejoin:miter;stroke-miterlimit:10;stroke-dasharray:none;stroke-opacity:1"
       d="m 147.22108,622.48539 c 0,-8.14054 6.59983,-14.74037 14.73919,-14.74037 h 73.13408 v -2.83443 h 10.20541 v 2.83443 h 20.40847 v -2.83443 h 10.20541 v 2.83443 h 73.1329 v 0 c 8.14053,0 14.74036,6.59983 14.74036,14.74037"
       sodipodi:nodetypes="csccccccccccc" /><path
       inkscape:connector-curvature="0"
       id="path5781"
       style="fill:none;stroke:#000000;stroke-width:0.80000001;stroke-linecap:butt;stroke-linejoin:miter;stroke-miterlimit:10;stroke-dasharray:none;stroke-opacity:1"
       d="m 363.7869,622.48539 v 5.66928 h 2.83483 v 5.66928 h -2.83483 v 5.66928"
       sodipodi:nodetypes="cccccc" /><g
       id="g88"
       transform="matrix(0,1.0193259,-1.0193259,0,327.15866,826.20796)"
       style="fill:none;stroke:#000000;stroke-width:0.78483242;stroke-miterlimit:4.09716606;stroke-dasharray:none;stroke-opacity:1"><path
         d="m 0,0 h 3.502 c 2.895,0 5.242,-2.56 5.242,-5.718 v 0.001 c 0,-3.158 -2.347,-5.718 -5.242,-5.718 H 0 c -2.895,0 -5.242,2.56 -5.242,5.718 V -5.718 C -5.242,-2.56 -2.895,0 0,0 Z"
         style="fill:none;stroke:#000000;stroke-width:0.78483242;stroke-linecap:butt;stroke-linejoin:miter;stroke-miterlimit:4.09716606;stroke-dasharray:none;stroke-opacity:1"
         id="path90"
         inkscape:connector-curvature="0" /></g><rect
       style="fill:none;fill-rule:evenodd;stroke:#000000;stroke-width:0.94840521;stroke-linecap:butt;stroke-linejoin:miter;stroke-miterlimit:4.09716606;stroke-dasharray:none;stroke-opacity:1"
       id="rect3378"
       width="132.27995"
       height="98.264191"
       x="189.3638"
       y="-779.901"
       transform="scale(1,-1)"
       ry="2.2677166" /><path
       inkscape:connector-curvature="0"
       id="path5737"
       style="fill:none;stroke:#000000;stroke-width:0.80000001;stroke-linecap:butt;stroke-linejoin:miter;stroke-miterlimit:10;stroke-dasharray:none;stroke-opacity:1"
       d="m 98.645369,656.78495 v 71.43317 m 0,5.10153 v 71.43317 m 2.894121,2.55136 v -35.71659 m 0,-5.10271 v -71.43199 m 0,-5.10271 v -35.71659 m 2.89425,2.55136 v 71.43317 m 0,5.10153 v 71.43317 m 2.89459,2.55136 v -35.71659 m 0,-5.10271 v -71.43199 m 0,-5.10271 v -35.71659 m 2.89413,2.55136 v 71.43317 m 0,5.10153 v 71.43317 m 2.89412,2.55136 v -35.71659 m 0,-5.10271 v -71.43199 m 0,-5.10271 v -35.71659 m 2.89424,2.55136 v 71.43317 m 0,5.10153 v 71.43317 m 2.89448,2.55136 v -35.71659 m 0,-5.10271 v -71.43199 m 0,-5.10271 v -35.71659 m 2.89413,2.55136 v 71.43317 m 0,5.10153 v 71.43317" /><path
       inkscape:connector-curvature="0"
       id="path5739"
       style="fill:none;stroke:#000000;stroke-width:0.80000001;stroke-linecap:butt;stroke-linejoin:miter;stroke-miterlimit:10;stroke-dasharray:none;stroke-opacity:1"
       d="m 98.645369,807.30418 h 23.154061 m 0,-153.07059 H 98.645369" /><path
       inkscape:connector-curvature="0"
       id="path5741"
       style="fill:none;stroke:#000000;stroke-width:0.80000001;stroke-linecap:butt;stroke-linejoin:miter;stroke-miterlimit:10;stroke-dasharray:none;stroke-opacity:1"
       d="m 138.80727,656.78495 v 71.43317 m 0,5.10153 v 71.43317 m 2.89413,2.55136 v -35.71659 m 0,-5.10271 v -71.43199 m 0,-5.10271 v -35.71659 m 2.89412,2.55136 v 71.43317 m 0,5.10153 v 71.43317 m 2.89412,2.55136 v -35.71659 m 0,-5.10271 v -71.43199 m 0,-5.10271 v -35.71659 m 2.89413,2.55136 v 71.43317 m 0,5.10153 v 71.43317 m 2.89412,2.55136 v -35.71659 m 0,-5.10271 v -71.43199 m 0,-5.10271 v -35.71659 m 2.89413,2.55136 v 71.43317 m 0,5.10153 v 71.43317 m 2.89412,2.55136 v -35.71659 m 0,-5.10271 v -71.43199 m 0,-5.10271 v -35.71659 m 2.89413,2.55136 v 71.43317 m 0,5.10153 v 71.43317" /><path
       inkscape:connector-curvature="0"
       id="path5743"
       style="fill:none;stroke:#000000;stroke-width:0.80000001;stroke-linecap:butt;stroke-linejoin:miter;stroke-miterlimit:10;stroke-dasharray:none;stroke-opacity:1"
       d="m 138.80727,807.30418 h 23.153 m 0,-153.07059 h -23.153" /><path
       inkscape:connector-curvature="0"
       id="path5745"
       style="fill:none;stroke:#000000;stroke-width:0.80000001;stroke-linecap:butt;stroke-linejoin:miter;stroke-miterlimit:10;stroke-dasharray:none;stroke-opacity:1"
       d="M 98.645369,807.30418 H 25.511882 v -2.83454 H 15.306823 v 2.83454 H 5.1022821 V 654.23359 H 15.306823 v 2.83448 h 10.205059 v -2.83448 h 73.133487"
       sodipodi:nodetypes="cccccccccccc" /><path
       inkscape:connector-curvature="0"
       id="path5747"
       style="fill:none;stroke:#000000;stroke-width:0.80000001;stroke-linecap:butt;stroke-linejoin:miter;stroke-miterlimit:10;stroke-dasharray:none;stroke-opacity:1"
       d="m 121.79943,807.30418 h 5.66928 v -2.83454 h 5.66928 v 2.83454 h 5.66928"
       sodipodi:nodetypes="cccccc" /><path
       inkscape:connector-curvature="0"
       id="path5749"
       style="fill:none;stroke:#000000;stroke-width:0.80000001;stroke-linecap:butt;stroke-linejoin:miter;stroke-miterlimit:10;stroke-dasharray:none;stroke-opacity:1"
       d="m 138.80727,654.23359 h -5.66928 v 2.83448 h -5.66928 v -2.83448 h -5.66928"
       sodipodi:nodetypes="cccccc" /><path
       inkscape:connector-curvature="0"
       id="path5751"
       style="fill:none;stroke:#000000;stroke-width:0.80000001;stroke-linecap:butt;stroke-linejoin:miter;stroke-miterlimit:10;stroke-dasharray:none;stroke-opacity:1"
       d="m 412.36273,656.78495 v 71.43317 m 0,5.10153 v 71.43317 m -2.89412,2.55136 v -35.71659 m 0,-5.10271 v -71.43199 m 0,-5.10271 v -35.71659 m -2.89413,2.55136 v 71.43317 m 0,5.10153 v 71.43317 m -2.8953,2.55136 v -35.71659 m 0,-5.10271 v -71.43199 m 0,-5.10271 v -35.71659 m -2.89412,2.55136 v 71.43317 m 0,5.10153 v 71.43317 m -2.89413,2.55136 v -35.71659 m 0,-5.10271 v -71.43199 m 0,-5.10271 v -35.71659 m -2.89412,2.55136 v 71.43317 m 0,5.10153 v 71.43317 m -2.89413,2.55136 v -35.71659 m 0,-5.10271 v -71.43199 m 0,-5.10271 v -35.71659 m -2.89412,2.55136 v 71.43317 m 0,5.10153 v 71.43317" /><path
       inkscape:connector-curvature="0"
       id="path5753"
       style="fill:none;stroke:#000000;stroke-width:0.80000001;stroke-linecap:butt;stroke-linejoin:miter;stroke-miterlimit:10;stroke-dasharray:none;stroke-opacity:1"
       d="m 412.36273,807.30418 h -23.15417 m 0,-153.07059 h 23.15417" /><path
       inkscape:connector-curvature="0"
       id="path5755"
       style="fill:none;stroke:#000000;stroke-width:0.80000001;stroke-linecap:butt;stroke-linejoin:miter;stroke-miterlimit:10;stroke-dasharray:none;stroke-opacity:1"
       d="m 372.20071,656.78495 v 71.43317 m 0,5.10153 v 71.43317 m -2.89412,2.55136 v -35.71659 m 0,-5.10271 v -71.43199 m 0,-5.10271 v -35.71659 m -2.89413,2.55136 v 71.43317 m 0,5.10153 v 71.43317 m -2.89412,2.55136 v -35.71659 m 0,-5.10271 v -71.43199 m 0,-5.10271 v -35.71659 m -2.89413,2.55136 v 71.43317 m 0,5.10153 v 71.43317 m -2.8953,2.55136 v -35.71659 m 0,-5.10271 v -71.43199 m 0,-5.10271 v -35.71659 m -2.89412,2.55136 v 71.43317 m 0,5.10153 v 71.43317 m -2.89413,2.55136 v -35.71659 m 0,-5.10271 v -71.43199 m 0,-5.10271 v -35.71659 m -2.89412,2.55136 v 71.43317 m 0,5.10153 v 71.43317" /><path
       inkscape:connector-curvature="0"
       id="path5757"
       style="fill:none;stroke:#000000;stroke-width:0.80000001;stroke-linecap:butt;stroke-linejoin:miter;stroke-miterlimit:10;stroke-dasharray:none;stroke-opacity:1"
       d="m 372.20071,807.30418 h -23.15417 m 0,-153.07059 h 23.15417" /><path
       inkscape:connector-curvature="0"
       id="path5759"
       style="fill:none;stroke:#000000;stroke-width:0.80000001;stroke-linecap:butt;stroke-linejoin:miter;stroke-miterlimit:10;stroke-dasharray:none;stroke-opacity:1"
       d="m 412.36273,807.30418 h 73.1329 v -2.83454 h 10.20541 v 2.83454 h 10.20424 V 654.23359 h -10.20424 v 2.83448 h -10.20541 v -2.83448 h -73.1329"
       sodipodi:nodetypes="cccccccccccc" /><path
       inkscape:connector-curvature="0"
       id="path5761"
       style="fill:none;stroke:#000000;stroke-width:0.80000001;stroke-linecap:butt;stroke-linejoin:miter;stroke-miterlimit:10;stroke-dasharray:none;stroke-opacity:1"
       d="m 389.20856,807.30418 h -5.66928 v -2.83454 h -5.66929 v 2.83454 h -5.66928"
       sodipodi:nodetypes="cccccc" /><path
       inkscape:connector-curvature="0"
       id="path5763"
       style="fill:none;stroke:#000000;stroke-width:0.80000001;stroke-linecap:butt;stroke-linejoin:miter;stroke-miterlimit:10;stroke-dasharray:none;stroke-opacity:1"
       d="m 372.20071,654.23359 h 5.66928 v 2.83448 h 5.66929 v -2.83448 h 5.66928"
       sodipodi:nodetypes="cccccc" /><path
       inkscape:connector-curvature="0"
       id="path5775"
       style="fill:none;stroke:#000000;stroke-width:0.80000001;stroke-linecap:butt;stroke-linejoin:miter;stroke-miterlimit:10;stroke-dasharray:none;stroke-opacity:1"
       d="m 349.04654,654.23359 h -9.84615 v 2.83448 h -9.84615 v -2.83448 h -9.84733 v 2.83448 h -9.84615 v -2.83448 h -9.84733 v 2.83448 h -9.84615 v -2.83448 h -9.84732 v 2.83448 h -9.84615 v -2.83448 h -9.84615 v 2.83448 h -9.84733 v -2.83448 h -9.84615 v 2.83448 h -9.84733 v -2.83448 h -9.84615 v 2.83448 h -9.84615 v -2.83448 h -9.84733 v 2.83448 h -9.84615 v -2.83448 h -9.84732 v 2.83448 h -9.84615 v -2.83448 h -9.84733 m 0,0 v 0 c -8.13936,0 -14.73919,-6.59983 -14.73919,-14.74036"
       sodipodi:nodetypes="ccccccccccccccccccccccccccccccccccccccccc" /><path
       inkscape:connector-curvature="0"
       id="path5783"
       style="fill:none;stroke:#000000;stroke-width:0.80000001;stroke-linecap:butt;stroke-linejoin:miter;stroke-miterlimit:10;stroke-dasharray:none;stroke-opacity:1"
       d="m 363.7869,639.49323 c 0,8.14053 -6.59983,14.74036 -14.74036,14.74036" /><path
       style="fill:none;stroke:#000000;stroke-width:0.80000001;stroke-linecap:butt;stroke-linejoin:miter;stroke-miterlimit:4.09716606;stroke-dasharray:none;stroke-opacity:1"
       d="m 53.102277,746.5017 c -2.86234,0 -5.21259,-6.00121 -5.475,-13.66876 -2.57481,-1.75331 -4.26718,-4.70655 -4.26718,-8.05624 0,-5.38 4.36218,-9.74063 9.74218,-9.74063 5.38,0 9.74219,4.36063 9.74219,9.74063 0,3.3505 -1.69292,6.30465 -4.26875,8.05781 -0.26266,7.66681 -2.61128,13.66719 -5.47344,13.66719 z"
       id="path138"
       inkscape:connector-curvature="0" /><path
       inkscape:connector-curvature="0"
       style="fill:none;stroke:#000000;stroke-width:0.80000001;stroke-linecap:butt;stroke-linejoin:miter;stroke-miterlimit:4.09716606;stroke-dasharray:none;stroke-opacity:1"
       d="m 457.90529,746.5017 c -2.86234,0 -5.2126,-6.00121 -5.475,-13.66876 -2.57481,-1.75331 -4.2672,-4.70655 -4.2672,-8.05624 0,-5.38 4.36219,-9.74063 9.7422,-9.74063 5.38,0 9.74218,4.36063 9.74218,9.74063 0,3.3505 -1.69291,6.30465 -4.26875,8.05781 -0.26265,7.66681 -2.61128,13.66719 -5.47343,13.66719 z"
       id="path138-5" /><path
       inkscape:connector-curvature="0"
       id="path5769-3"
       style="fill:none;stroke:#000000;stroke-width:0.79999995;stroke-linecap:butt;stroke-linejoin:miter;stroke-miterlimit:10;stroke-dasharray:none;stroke-opacity:1"
       d="m 363.78689,839.05238 c 0,8.14054 -6.59983,14.74037 -14.74036,14.74037 h -73.13289 v 2.83437 h -10.20541 v -2.83437 h -5.10212 c 0.0272,-10.10714 -10.05564,-9.62832 -10.20423,0 h -5.10212 v 2.83437 h -10.20541 v -2.83437 h -73.13408 v 0 c -8.13936,0 -14.73919,-6.59983 -14.73919,-14.74037"
       sodipodi:nodetypes="csccccccccccccc" /></g></svg>